# xmcd
#
# Track frame offsets: 
#        150
#        29808
#        44079
#        53891
#        68761
#        86124
#        107841
#        129572
#        155016
#        171376
#        189450
#        210624
#
# Disc length: 3032 seconds
#
# Revision: 0
# Processed by: cddbd v1.5.2PL0 Copyright (c) Steve Scherf et al.
# Submitted via: ExactAudioCopy v1.3
#
DISCID=b70bd60c
DTITLE=Sun Drivers - Blues Time
DYEAR=2018
DGENRE=Blues Rock
TTITLE0=Brothers Black And White
TTITLE1=Black Jacket
TTITLE2=Crocodile Or Alligator
TTITLE3=Father and Son
TTITLE4=Blues Time
TTITLE5=Like Sun Adorns The Sky
TTITLE6=How Pure, How Dear
TTITLE7=God Knows Best
TTITLE8=Wait For Your Muse
TTITLE9=Way Home
TTITLE10=Doors To The Music World
TTITLE11=I Left My Town
EXTD=
EXTT0=
EXTT1=
EXTT2=
EXTT3=
EXTT4=
EXTT5=
EXTT6=
EXTT7=
EXTT8=
EXTT9=
EXTT10=
EXTT11=
PLAYORDER=
